<mxfile host="app.diagrams.net" modified="2023-05-19T14:36:56.850Z" agent="Mozilla/5.0 (Windows NT 10.0; Win64; x64) AppleWebKit/537.36 (KHTML, like Gecko) Chrome/112.0.0.0 Safari/537.36 OPR/98.0.0.0" etag="RwMCBVBKpnmx9Ojcttch" version="21.3.0">
  <diagram name="Page-1" id="YJUfnkwtlab8EU5dvwUo">
    <mxGraphModel dx="1554" dy="846" grid="1" gridSize="10" guides="1" tooltips="1" connect="1" arrows="1" fold="1" page="1" pageScale="1" pageWidth="827" pageHeight="1169" math="0" shadow="0">
      <root>
        <mxCell id="0" />
        <mxCell id="1" parent="0" />
        <mxCell id="fl1EmZzA1rh__hJR12n7-1" value="1" style="ellipse;whiteSpace=wrap;html=1;aspect=fixed;" vertex="1" parent="1">
          <mxGeometry x="180" y="340" width="40" height="40" as="geometry" />
        </mxCell>
        <mxCell id="fl1EmZzA1rh__hJR12n7-33" style="rounded=0;orthogonalLoop=1;jettySize=auto;html=1;exitX=1;exitY=0;exitDx=0;exitDy=0;entryX=0;entryY=0.5;entryDx=0;entryDy=0;" edge="1" parent="1" source="fl1EmZzA1rh__hJR12n7-2" target="fl1EmZzA1rh__hJR12n7-3">
          <mxGeometry relative="1" as="geometry" />
        </mxCell>
        <mxCell id="fl1EmZzA1rh__hJR12n7-68" value="z2/4" style="edgeLabel;html=1;align=center;verticalAlign=middle;resizable=0;points=[];" vertex="1" connectable="0" parent="fl1EmZzA1rh__hJR12n7-33">
          <mxGeometry x="0.1714" y="-1" relative="1" as="geometry">
            <mxPoint as="offset" />
          </mxGeometry>
        </mxCell>
        <mxCell id="fl1EmZzA1rh__hJR12n7-35" style="rounded=0;orthogonalLoop=1;jettySize=auto;html=1;exitX=1;exitY=1;exitDx=0;exitDy=0;entryX=0;entryY=0.5;entryDx=0;entryDy=0;" edge="1" parent="1" source="fl1EmZzA1rh__hJR12n7-2" target="fl1EmZzA1rh__hJR12n7-4">
          <mxGeometry relative="1" as="geometry" />
        </mxCell>
        <mxCell id="fl1EmZzA1rh__hJR12n7-69" value="z4/1" style="edgeLabel;html=1;align=center;verticalAlign=middle;resizable=0;points=[];" vertex="1" connectable="0" parent="fl1EmZzA1rh__hJR12n7-35">
          <mxGeometry x="-0.2847" relative="1" as="geometry">
            <mxPoint as="offset" />
          </mxGeometry>
        </mxCell>
        <mxCell id="fl1EmZzA1rh__hJR12n7-2" value="2" style="ellipse;whiteSpace=wrap;html=1;aspect=fixed;" vertex="1" parent="1">
          <mxGeometry x="300" y="340" width="40" height="40" as="geometry" />
        </mxCell>
        <mxCell id="fl1EmZzA1rh__hJR12n7-52" style="rounded=0;orthogonalLoop=1;jettySize=auto;html=1;exitX=1;exitY=0.5;exitDx=0;exitDy=0;entryX=0;entryY=0;entryDx=0;entryDy=0;endArrow=none;endFill=0;dashed=1;dashPattern=1 4;" edge="1" parent="1" source="fl1EmZzA1rh__hJR12n7-3" target="fl1EmZzA1rh__hJR12n7-5">
          <mxGeometry relative="1" as="geometry" />
        </mxCell>
        <mxCell id="fl1EmZzA1rh__hJR12n7-3" value="3" style="ellipse;whiteSpace=wrap;html=1;aspect=fixed;" vertex="1" parent="1">
          <mxGeometry x="390" y="280" width="40" height="40" as="geometry" />
        </mxCell>
        <mxCell id="fl1EmZzA1rh__hJR12n7-53" style="rounded=0;orthogonalLoop=1;jettySize=auto;html=1;exitX=1;exitY=0.5;exitDx=0;exitDy=0;dashed=1;dashPattern=1 4;endArrow=none;endFill=0;" edge="1" parent="1" source="fl1EmZzA1rh__hJR12n7-4" target="fl1EmZzA1rh__hJR12n7-5">
          <mxGeometry relative="1" as="geometry" />
        </mxCell>
        <mxCell id="fl1EmZzA1rh__hJR12n7-4" value="4" style="ellipse;whiteSpace=wrap;html=1;aspect=fixed;" vertex="1" parent="1">
          <mxGeometry x="390" y="390" width="40" height="40" as="geometry" />
        </mxCell>
        <mxCell id="fl1EmZzA1rh__hJR12n7-37" style="edgeStyle=orthogonalEdgeStyle;rounded=0;orthogonalLoop=1;jettySize=auto;html=1;exitX=1;exitY=0.5;exitDx=0;exitDy=0;entryX=0;entryY=0.5;entryDx=0;entryDy=0;" edge="1" parent="1" source="fl1EmZzA1rh__hJR12n7-5" target="fl1EmZzA1rh__hJR12n7-6">
          <mxGeometry relative="1" as="geometry" />
        </mxCell>
        <mxCell id="fl1EmZzA1rh__hJR12n7-70" value="z3/4" style="edgeLabel;html=1;align=center;verticalAlign=middle;resizable=0;points=[];" vertex="1" connectable="0" parent="fl1EmZzA1rh__hJR12n7-37">
          <mxGeometry x="-0.1864" relative="1" as="geometry">
            <mxPoint as="offset" />
          </mxGeometry>
        </mxCell>
        <mxCell id="fl1EmZzA1rh__hJR12n7-5" value="5" style="ellipse;whiteSpace=wrap;html=1;aspect=fixed;" vertex="1" parent="1">
          <mxGeometry x="480" y="340" width="40" height="40" as="geometry" />
        </mxCell>
        <mxCell id="fl1EmZzA1rh__hJR12n7-38" style="edgeStyle=orthogonalEdgeStyle;rounded=0;orthogonalLoop=1;jettySize=auto;html=1;exitX=1;exitY=0.5;exitDx=0;exitDy=0;entryX=0;entryY=0.5;entryDx=0;entryDy=0;" edge="1" parent="1" source="fl1EmZzA1rh__hJR12n7-6" target="fl1EmZzA1rh__hJR12n7-7">
          <mxGeometry relative="1" as="geometry" />
        </mxCell>
        <mxCell id="fl1EmZzA1rh__hJR12n7-71" value="z5/2" style="edgeLabel;html=1;align=center;verticalAlign=middle;resizable=0;points=[];" vertex="1" connectable="0" parent="fl1EmZzA1rh__hJR12n7-38">
          <mxGeometry x="-0.219" y="2" relative="1" as="geometry">
            <mxPoint as="offset" />
          </mxGeometry>
        </mxCell>
        <mxCell id="fl1EmZzA1rh__hJR12n7-6" value="6" style="ellipse;whiteSpace=wrap;html=1;aspect=fixed;" vertex="1" parent="1">
          <mxGeometry x="580" y="340" width="40" height="40" as="geometry" />
        </mxCell>
        <mxCell id="fl1EmZzA1rh__hJR12n7-39" style="rounded=0;orthogonalLoop=1;jettySize=auto;html=1;exitX=1;exitY=0;exitDx=0;exitDy=0;entryX=0;entryY=0.5;entryDx=0;entryDy=0;" edge="1" parent="1" source="fl1EmZzA1rh__hJR12n7-7" target="fl1EmZzA1rh__hJR12n7-9">
          <mxGeometry relative="1" as="geometry" />
        </mxCell>
        <mxCell id="fl1EmZzA1rh__hJR12n7-72" value="z7/2" style="edgeLabel;html=1;align=center;verticalAlign=middle;resizable=0;points=[];" vertex="1" connectable="0" parent="fl1EmZzA1rh__hJR12n7-39">
          <mxGeometry x="-0.2959" y="1" relative="1" as="geometry">
            <mxPoint as="offset" />
          </mxGeometry>
        </mxCell>
        <mxCell id="fl1EmZzA1rh__hJR12n7-40" style="rounded=0;orthogonalLoop=1;jettySize=auto;html=1;exitX=1;exitY=1;exitDx=0;exitDy=0;entryX=0;entryY=0.5;entryDx=0;entryDy=0;" edge="1" parent="1" source="fl1EmZzA1rh__hJR12n7-7" target="fl1EmZzA1rh__hJR12n7-10">
          <mxGeometry relative="1" as="geometry" />
        </mxCell>
        <mxCell id="fl1EmZzA1rh__hJR12n7-73" value="z8/2" style="edgeLabel;html=1;align=center;verticalAlign=middle;resizable=0;points=[];" vertex="1" connectable="0" parent="fl1EmZzA1rh__hJR12n7-40">
          <mxGeometry x="0.181" relative="1" as="geometry">
            <mxPoint as="offset" />
          </mxGeometry>
        </mxCell>
        <mxCell id="fl1EmZzA1rh__hJR12n7-7" value="7" style="ellipse;whiteSpace=wrap;html=1;aspect=fixed;" vertex="1" parent="1">
          <mxGeometry x="680" y="340" width="40" height="40" as="geometry" />
        </mxCell>
        <mxCell id="fl1EmZzA1rh__hJR12n7-8" value="" style="endArrow=classic;html=1;rounded=0;exitX=1;exitY=0.5;exitDx=0;exitDy=0;entryX=0;entryY=0.5;entryDx=0;entryDy=0;" edge="1" parent="1" source="fl1EmZzA1rh__hJR12n7-1" target="fl1EmZzA1rh__hJR12n7-2">
          <mxGeometry width="50" height="50" relative="1" as="geometry">
            <mxPoint x="510" y="530" as="sourcePoint" />
            <mxPoint x="560" y="480" as="targetPoint" />
          </mxGeometry>
        </mxCell>
        <mxCell id="fl1EmZzA1rh__hJR12n7-66" value="&amp;nbsp;z1/3" style="edgeLabel;html=1;align=center;verticalAlign=middle;resizable=0;points=[];" vertex="1" connectable="0" parent="fl1EmZzA1rh__hJR12n7-8">
          <mxGeometry x="-0.1317" y="-1" relative="1" as="geometry">
            <mxPoint as="offset" />
          </mxGeometry>
        </mxCell>
        <mxCell id="fl1EmZzA1rh__hJR12n7-54" style="rounded=0;orthogonalLoop=1;jettySize=auto;html=1;exitX=1;exitY=0.5;exitDx=0;exitDy=0;entryX=0;entryY=0.5;entryDx=0;entryDy=0;dashed=1;dashPattern=1 4;endArrow=none;endFill=0;" edge="1" parent="1" source="fl1EmZzA1rh__hJR12n7-9" target="fl1EmZzA1rh__hJR12n7-11">
          <mxGeometry relative="1" as="geometry" />
        </mxCell>
        <mxCell id="fl1EmZzA1rh__hJR12n7-9" value="8" style="ellipse;whiteSpace=wrap;html=1;aspect=fixed;" vertex="1" parent="1">
          <mxGeometry x="760" y="280" width="40" height="40" as="geometry" />
        </mxCell>
        <mxCell id="fl1EmZzA1rh__hJR12n7-55" style="rounded=0;orthogonalLoop=1;jettySize=auto;html=1;exitX=1;exitY=0.5;exitDx=0;exitDy=0;entryX=0.017;entryY=0.592;entryDx=0;entryDy=0;entryPerimeter=0;dashed=1;dashPattern=1 4;endArrow=none;endFill=0;" edge="1" parent="1" source="fl1EmZzA1rh__hJR12n7-10" target="fl1EmZzA1rh__hJR12n7-11">
          <mxGeometry relative="1" as="geometry" />
        </mxCell>
        <mxCell id="fl1EmZzA1rh__hJR12n7-10" value="9" style="ellipse;whiteSpace=wrap;html=1;aspect=fixed;" vertex="1" parent="1">
          <mxGeometry x="760" y="390" width="40" height="40" as="geometry" />
        </mxCell>
        <mxCell id="fl1EmZzA1rh__hJR12n7-41" style="edgeStyle=orthogonalEdgeStyle;rounded=0;orthogonalLoop=1;jettySize=auto;html=1;exitX=1;exitY=0.5;exitDx=0;exitDy=0;entryX=0;entryY=0.5;entryDx=0;entryDy=0;" edge="1" parent="1" source="fl1EmZzA1rh__hJR12n7-11" target="fl1EmZzA1rh__hJR12n7-12">
          <mxGeometry relative="1" as="geometry" />
        </mxCell>
        <mxCell id="fl1EmZzA1rh__hJR12n7-74" value="z6/6" style="edgeLabel;html=1;align=center;verticalAlign=middle;resizable=0;points=[];" vertex="1" connectable="0" parent="fl1EmZzA1rh__hJR12n7-41">
          <mxGeometry x="-0.2095" relative="1" as="geometry">
            <mxPoint as="offset" />
          </mxGeometry>
        </mxCell>
        <mxCell id="fl1EmZzA1rh__hJR12n7-11" value="10" style="ellipse;whiteSpace=wrap;html=1;aspect=fixed;" vertex="1" parent="1">
          <mxGeometry x="850" y="340" width="40" height="40" as="geometry" />
        </mxCell>
        <mxCell id="fl1EmZzA1rh__hJR12n7-42" style="rounded=0;orthogonalLoop=1;jettySize=auto;html=1;exitX=1;exitY=0;exitDx=0;exitDy=0;entryX=0;entryY=0.5;entryDx=0;entryDy=0;" edge="1" parent="1" source="fl1EmZzA1rh__hJR12n7-12" target="fl1EmZzA1rh__hJR12n7-13">
          <mxGeometry relative="1" as="geometry" />
        </mxCell>
        <mxCell id="fl1EmZzA1rh__hJR12n7-75" value="z9/3" style="edgeLabel;html=1;align=center;verticalAlign=middle;resizable=0;points=[];" vertex="1" connectable="0" parent="fl1EmZzA1rh__hJR12n7-42">
          <mxGeometry x="-0.1615" relative="1" as="geometry">
            <mxPoint as="offset" />
          </mxGeometry>
        </mxCell>
        <mxCell id="fl1EmZzA1rh__hJR12n7-43" style="rounded=0;orthogonalLoop=1;jettySize=auto;html=1;exitX=1;exitY=1;exitDx=0;exitDy=0;entryX=0;entryY=0.5;entryDx=0;entryDy=0;" edge="1" parent="1" source="fl1EmZzA1rh__hJR12n7-12" target="fl1EmZzA1rh__hJR12n7-14">
          <mxGeometry relative="1" as="geometry" />
        </mxCell>
        <mxCell id="fl1EmZzA1rh__hJR12n7-76" value="z12/3" style="edgeLabel;html=1;align=center;verticalAlign=middle;resizable=0;points=[];" vertex="1" connectable="0" parent="fl1EmZzA1rh__hJR12n7-43">
          <mxGeometry x="-0.214" y="1" relative="1" as="geometry">
            <mxPoint as="offset" />
          </mxGeometry>
        </mxCell>
        <mxCell id="fl1EmZzA1rh__hJR12n7-12" value="11" style="ellipse;whiteSpace=wrap;html=1;aspect=fixed;" vertex="1" parent="1">
          <mxGeometry x="950" y="340" width="40" height="40" as="geometry" />
        </mxCell>
        <mxCell id="fl1EmZzA1rh__hJR12n7-56" style="rounded=0;orthogonalLoop=1;jettySize=auto;html=1;exitX=1;exitY=0.5;exitDx=0;exitDy=0;entryX=0;entryY=0.5;entryDx=0;entryDy=0;dashed=1;dashPattern=1 4;endArrow=none;endFill=0;" edge="1" parent="1" source="fl1EmZzA1rh__hJR12n7-13" target="fl1EmZzA1rh__hJR12n7-16">
          <mxGeometry relative="1" as="geometry" />
        </mxCell>
        <mxCell id="fl1EmZzA1rh__hJR12n7-13" value="12" style="ellipse;whiteSpace=wrap;html=1;aspect=fixed;" vertex="1" parent="1">
          <mxGeometry x="1030" y="280" width="40" height="40" as="geometry" />
        </mxCell>
        <mxCell id="fl1EmZzA1rh__hJR12n7-57" style="rounded=0;orthogonalLoop=1;jettySize=auto;html=1;exitX=1;exitY=0.5;exitDx=0;exitDy=0;dashed=1;dashPattern=1 4;endArrow=none;endFill=0;" edge="1" parent="1" source="fl1EmZzA1rh__hJR12n7-14">
          <mxGeometry relative="1" as="geometry">
            <mxPoint x="1110" y="360" as="targetPoint" />
          </mxGeometry>
        </mxCell>
        <mxCell id="fl1EmZzA1rh__hJR12n7-14" value="13" style="ellipse;whiteSpace=wrap;html=1;aspect=fixed;" vertex="1" parent="1">
          <mxGeometry x="1030" y="390" width="40" height="40" as="geometry" />
        </mxCell>
        <mxCell id="fl1EmZzA1rh__hJR12n7-44" style="edgeStyle=orthogonalEdgeStyle;rounded=0;orthogonalLoop=1;jettySize=auto;html=1;exitX=1;exitY=0.5;exitDx=0;exitDy=0;entryX=0;entryY=0.5;entryDx=0;entryDy=0;" edge="1" parent="1" source="fl1EmZzA1rh__hJR12n7-16" target="fl1EmZzA1rh__hJR12n7-17">
          <mxGeometry relative="1" as="geometry" />
        </mxCell>
        <mxCell id="fl1EmZzA1rh__hJR12n7-77" value="z10/3" style="edgeLabel;html=1;align=center;verticalAlign=middle;resizable=0;points=[];" vertex="1" connectable="0" parent="fl1EmZzA1rh__hJR12n7-44">
          <mxGeometry x="-0.1633" y="1" relative="1" as="geometry">
            <mxPoint as="offset" />
          </mxGeometry>
        </mxCell>
        <mxCell id="fl1EmZzA1rh__hJR12n7-16" value="14" style="ellipse;whiteSpace=wrap;html=1;aspect=fixed;" vertex="1" parent="1">
          <mxGeometry x="1110" y="340" width="40" height="40" as="geometry" />
        </mxCell>
        <mxCell id="fl1EmZzA1rh__hJR12n7-23" style="edgeStyle=orthogonalEdgeStyle;rounded=0;orthogonalLoop=1;jettySize=auto;html=1;exitX=0.5;exitY=1;exitDx=0;exitDy=0;entryX=0.5;entryY=0;entryDx=0;entryDy=0;" edge="1" parent="1" source="fl1EmZzA1rh__hJR12n7-17" target="fl1EmZzA1rh__hJR12n7-18">
          <mxGeometry relative="1" as="geometry" />
        </mxCell>
        <mxCell id="fl1EmZzA1rh__hJR12n7-78" value="z11/3" style="edgeLabel;html=1;align=center;verticalAlign=middle;resizable=0;points=[];" vertex="1" connectable="0" parent="fl1EmZzA1rh__hJR12n7-23">
          <mxGeometry x="0.9156" relative="1" as="geometry">
            <mxPoint as="offset" />
          </mxGeometry>
        </mxCell>
        <mxCell id="fl1EmZzA1rh__hJR12n7-17" value="15" style="ellipse;whiteSpace=wrap;html=1;aspect=fixed;" vertex="1" parent="1">
          <mxGeometry x="1210" y="340" width="40" height="40" as="geometry" />
        </mxCell>
        <mxCell id="fl1EmZzA1rh__hJR12n7-36" style="edgeStyle=orthogonalEdgeStyle;rounded=0;orthogonalLoop=1;jettySize=auto;html=1;exitX=1;exitY=0.5;exitDx=0;exitDy=0;entryX=0;entryY=0.5;entryDx=0;entryDy=0;" edge="1" parent="1" source="fl1EmZzA1rh__hJR12n7-18" target="fl1EmZzA1rh__hJR12n7-19">
          <mxGeometry relative="1" as="geometry" />
        </mxCell>
        <mxCell id="fl1EmZzA1rh__hJR12n7-79" value="z13/2" style="edgeLabel;html=1;align=center;verticalAlign=middle;resizable=0;points=[];" vertex="1" connectable="0" parent="fl1EmZzA1rh__hJR12n7-36">
          <mxGeometry x="-0.2479" y="1" relative="1" as="geometry">
            <mxPoint as="offset" />
          </mxGeometry>
        </mxCell>
        <mxCell id="fl1EmZzA1rh__hJR12n7-18" value="16" style="ellipse;whiteSpace=wrap;html=1;aspect=fixed;" vertex="1" parent="1">
          <mxGeometry x="180" y="542" width="40" height="40" as="geometry" />
        </mxCell>
        <mxCell id="fl1EmZzA1rh__hJR12n7-45" style="rounded=0;orthogonalLoop=1;jettySize=auto;html=1;exitX=1;exitY=0;exitDx=0;exitDy=0;entryX=0;entryY=0.5;entryDx=0;entryDy=0;" edge="1" parent="1" source="fl1EmZzA1rh__hJR12n7-19" target="fl1EmZzA1rh__hJR12n7-20">
          <mxGeometry relative="1" as="geometry" />
        </mxCell>
        <mxCell id="fl1EmZzA1rh__hJR12n7-80" value="z14/2" style="edgeLabel;html=1;align=center;verticalAlign=middle;resizable=0;points=[];" vertex="1" connectable="0" parent="fl1EmZzA1rh__hJR12n7-45">
          <mxGeometry x="-0.1991" y="1" relative="1" as="geometry">
            <mxPoint as="offset" />
          </mxGeometry>
        </mxCell>
        <mxCell id="fl1EmZzA1rh__hJR12n7-46" style="rounded=0;orthogonalLoop=1;jettySize=auto;html=1;exitX=1;exitY=0.5;exitDx=0;exitDy=0;entryX=0;entryY=0.5;entryDx=0;entryDy=0;" edge="1" parent="1" source="fl1EmZzA1rh__hJR12n7-19" target="fl1EmZzA1rh__hJR12n7-21">
          <mxGeometry relative="1" as="geometry" />
        </mxCell>
        <mxCell id="fl1EmZzA1rh__hJR12n7-81" value="z15/6" style="edgeLabel;html=1;align=center;verticalAlign=middle;resizable=0;points=[];" vertex="1" connectable="0" parent="fl1EmZzA1rh__hJR12n7-46">
          <mxGeometry x="-0.1351" y="2" relative="1" as="geometry">
            <mxPoint as="offset" />
          </mxGeometry>
        </mxCell>
        <mxCell id="fl1EmZzA1rh__hJR12n7-47" style="rounded=0;orthogonalLoop=1;jettySize=auto;html=1;exitX=1;exitY=1;exitDx=0;exitDy=0;entryX=0;entryY=0;entryDx=0;entryDy=0;" edge="1" parent="1" source="fl1EmZzA1rh__hJR12n7-19" target="fl1EmZzA1rh__hJR12n7-22">
          <mxGeometry relative="1" as="geometry" />
        </mxCell>
        <mxCell id="fl1EmZzA1rh__hJR12n7-82" value="z16/2" style="edgeLabel;html=1;align=center;verticalAlign=middle;resizable=0;points=[];" vertex="1" connectable="0" parent="fl1EmZzA1rh__hJR12n7-47">
          <mxGeometry x="-0.2053" y="1" relative="1" as="geometry">
            <mxPoint as="offset" />
          </mxGeometry>
        </mxCell>
        <mxCell id="fl1EmZzA1rh__hJR12n7-19" value="17" style="ellipse;whiteSpace=wrap;html=1;aspect=fixed;" vertex="1" parent="1">
          <mxGeometry x="280" y="542" width="40" height="40" as="geometry" />
        </mxCell>
        <mxCell id="fl1EmZzA1rh__hJR12n7-58" style="rounded=0;orthogonalLoop=1;jettySize=auto;html=1;exitX=1;exitY=0.5;exitDx=0;exitDy=0;entryX=0;entryY=0.5;entryDx=0;entryDy=0;dashed=1;dashPattern=1 4;endArrow=none;endFill=0;" edge="1" parent="1" source="fl1EmZzA1rh__hJR12n7-20" target="fl1EmZzA1rh__hJR12n7-24">
          <mxGeometry relative="1" as="geometry" />
        </mxCell>
        <mxCell id="fl1EmZzA1rh__hJR12n7-59" style="rounded=0;orthogonalLoop=1;jettySize=auto;html=1;exitX=1;exitY=0.5;exitDx=0;exitDy=0;entryX=0;entryY=0.5;entryDx=0;entryDy=0;dashed=1;dashPattern=1 4;endArrow=none;endFill=0;" edge="1" parent="1" source="fl1EmZzA1rh__hJR12n7-20" target="fl1EmZzA1rh__hJR12n7-25">
          <mxGeometry relative="1" as="geometry" />
        </mxCell>
        <mxCell id="fl1EmZzA1rh__hJR12n7-20" value="18" style="ellipse;whiteSpace=wrap;html=1;aspect=fixed;" vertex="1" parent="1">
          <mxGeometry x="394" y="479" width="40" height="40" as="geometry" />
        </mxCell>
        <mxCell id="fl1EmZzA1rh__hJR12n7-60" style="rounded=0;orthogonalLoop=1;jettySize=auto;html=1;exitX=1;exitY=0.5;exitDx=0;exitDy=0;entryX=0;entryY=0.5;entryDx=0;entryDy=0;dashed=1;dashPattern=1 4;endArrow=none;endFill=0;" edge="1" parent="1" source="fl1EmZzA1rh__hJR12n7-21" target="fl1EmZzA1rh__hJR12n7-24">
          <mxGeometry relative="1" as="geometry" />
        </mxCell>
        <mxCell id="fl1EmZzA1rh__hJR12n7-61" style="rounded=0;orthogonalLoop=1;jettySize=auto;html=1;exitX=1;exitY=0.5;exitDx=0;exitDy=0;entryX=0;entryY=0.5;entryDx=0;entryDy=0;dashed=1;dashPattern=1 4;endArrow=none;endFill=0;" edge="1" parent="1" source="fl1EmZzA1rh__hJR12n7-21" target="fl1EmZzA1rh__hJR12n7-25">
          <mxGeometry relative="1" as="geometry" />
        </mxCell>
        <mxCell id="fl1EmZzA1rh__hJR12n7-21" value="19" style="ellipse;whiteSpace=wrap;html=1;aspect=fixed;" vertex="1" parent="1">
          <mxGeometry x="394" y="542" width="40" height="40" as="geometry" />
        </mxCell>
        <mxCell id="fl1EmZzA1rh__hJR12n7-62" style="rounded=0;orthogonalLoop=1;jettySize=auto;html=1;exitX=1;exitY=0.5;exitDx=0;exitDy=0;entryX=-0.088;entryY=0.491;entryDx=0;entryDy=0;entryPerimeter=0;dashed=1;dashPattern=1 4;endArrow=none;endFill=0;" edge="1" parent="1" source="fl1EmZzA1rh__hJR12n7-22" target="fl1EmZzA1rh__hJR12n7-25">
          <mxGeometry relative="1" as="geometry" />
        </mxCell>
        <mxCell id="fl1EmZzA1rh__hJR12n7-63" style="rounded=0;orthogonalLoop=1;jettySize=auto;html=1;exitX=1;exitY=0.5;exitDx=0;exitDy=0;entryX=0;entryY=0.5;entryDx=0;entryDy=0;dashed=1;dashPattern=1 4;endArrow=none;endFill=0;" edge="1" parent="1" source="fl1EmZzA1rh__hJR12n7-22" target="fl1EmZzA1rh__hJR12n7-24">
          <mxGeometry relative="1" as="geometry" />
        </mxCell>
        <mxCell id="fl1EmZzA1rh__hJR12n7-22" value="20" style="ellipse;whiteSpace=wrap;html=1;aspect=fixed;" vertex="1" parent="1">
          <mxGeometry x="394" y="616" width="40" height="40" as="geometry" />
        </mxCell>
        <mxCell id="fl1EmZzA1rh__hJR12n7-48" style="edgeStyle=orthogonalEdgeStyle;rounded=0;orthogonalLoop=1;jettySize=auto;html=1;exitX=1;exitY=0.5;exitDx=0;exitDy=0;entryX=0;entryY=0.5;entryDx=0;entryDy=0;" edge="1" parent="1" source="fl1EmZzA1rh__hJR12n7-24" target="fl1EmZzA1rh__hJR12n7-26">
          <mxGeometry relative="1" as="geometry" />
        </mxCell>
        <mxCell id="fl1EmZzA1rh__hJR12n7-83" value="z18/3" style="edgeLabel;html=1;align=center;verticalAlign=middle;resizable=0;points=[];" vertex="1" connectable="0" parent="fl1EmZzA1rh__hJR12n7-48">
          <mxGeometry x="-0.1708" relative="1" as="geometry">
            <mxPoint as="offset" />
          </mxGeometry>
        </mxCell>
        <mxCell id="fl1EmZzA1rh__hJR12n7-24" value="21" style="ellipse;whiteSpace=wrap;html=1;aspect=fixed;" vertex="1" parent="1">
          <mxGeometry x="480" y="490" width="40" height="40" as="geometry" />
        </mxCell>
        <mxCell id="fl1EmZzA1rh__hJR12n7-49" style="edgeStyle=orthogonalEdgeStyle;rounded=0;orthogonalLoop=1;jettySize=auto;html=1;exitX=1;exitY=0.5;exitDx=0;exitDy=0;entryX=0;entryY=0.5;entryDx=0;entryDy=0;" edge="1" parent="1" source="fl1EmZzA1rh__hJR12n7-25" target="fl1EmZzA1rh__hJR12n7-27">
          <mxGeometry relative="1" as="geometry" />
        </mxCell>
        <mxCell id="fl1EmZzA1rh__hJR12n7-84" value="z19/3" style="edgeLabel;html=1;align=center;verticalAlign=middle;resizable=0;points=[];" vertex="1" connectable="0" parent="fl1EmZzA1rh__hJR12n7-49">
          <mxGeometry x="-0.1917" y="2" relative="1" as="geometry">
            <mxPoint as="offset" />
          </mxGeometry>
        </mxCell>
        <mxCell id="fl1EmZzA1rh__hJR12n7-25" value="22" style="ellipse;whiteSpace=wrap;html=1;aspect=fixed;" vertex="1" parent="1">
          <mxGeometry x="480" y="582" width="40" height="40" as="geometry" />
        </mxCell>
        <mxCell id="fl1EmZzA1rh__hJR12n7-64" style="rounded=0;orthogonalLoop=1;jettySize=auto;html=1;exitX=1;exitY=0.5;exitDx=0;exitDy=0;entryX=0;entryY=0.5;entryDx=0;entryDy=0;dashed=1;dashPattern=1 4;endArrow=none;endFill=0;" edge="1" parent="1" source="fl1EmZzA1rh__hJR12n7-26" target="fl1EmZzA1rh__hJR12n7-28">
          <mxGeometry relative="1" as="geometry" />
        </mxCell>
        <mxCell id="fl1EmZzA1rh__hJR12n7-26" value="23" style="ellipse;whiteSpace=wrap;html=1;aspect=fixed;" vertex="1" parent="1">
          <mxGeometry x="580" y="490" width="40" height="40" as="geometry" />
        </mxCell>
        <mxCell id="fl1EmZzA1rh__hJR12n7-65" style="rounded=0;orthogonalLoop=1;jettySize=auto;html=1;exitX=1;exitY=0.5;exitDx=0;exitDy=0;entryX=0;entryY=0.5;entryDx=0;entryDy=0;dashed=1;dashPattern=1 4;endArrow=none;endFill=0;" edge="1" parent="1" source="fl1EmZzA1rh__hJR12n7-27" target="fl1EmZzA1rh__hJR12n7-28">
          <mxGeometry relative="1" as="geometry" />
        </mxCell>
        <mxCell id="fl1EmZzA1rh__hJR12n7-27" value="24" style="ellipse;whiteSpace=wrap;html=1;aspect=fixed;" vertex="1" parent="1">
          <mxGeometry x="580" y="582" width="40" height="40" as="geometry" />
        </mxCell>
        <mxCell id="fl1EmZzA1rh__hJR12n7-50" style="edgeStyle=orthogonalEdgeStyle;rounded=0;orthogonalLoop=1;jettySize=auto;html=1;exitX=1;exitY=0.5;exitDx=0;exitDy=0;entryX=0;entryY=0.5;entryDx=0;entryDy=0;" edge="1" parent="1" source="fl1EmZzA1rh__hJR12n7-28" target="fl1EmZzA1rh__hJR12n7-29">
          <mxGeometry relative="1" as="geometry" />
        </mxCell>
        <mxCell id="fl1EmZzA1rh__hJR12n7-85" value="z17/3" style="edgeLabel;html=1;align=center;verticalAlign=middle;resizable=0;points=[];" vertex="1" connectable="0" parent="fl1EmZzA1rh__hJR12n7-50">
          <mxGeometry x="-0.1479" relative="1" as="geometry">
            <mxPoint as="offset" />
          </mxGeometry>
        </mxCell>
        <mxCell id="fl1EmZzA1rh__hJR12n7-28" value="25" style="ellipse;whiteSpace=wrap;html=1;aspect=fixed;" vertex="1" parent="1">
          <mxGeometry x="680" y="542" width="40" height="40" as="geometry" />
        </mxCell>
        <mxCell id="fl1EmZzA1rh__hJR12n7-51" style="edgeStyle=orthogonalEdgeStyle;rounded=0;orthogonalLoop=1;jettySize=auto;html=1;exitX=1;exitY=0.5;exitDx=0;exitDy=0;entryX=0;entryY=0.5;entryDx=0;entryDy=0;" edge="1" parent="1" source="fl1EmZzA1rh__hJR12n7-29" target="fl1EmZzA1rh__hJR12n7-31">
          <mxGeometry relative="1" as="geometry" />
        </mxCell>
        <mxCell id="fl1EmZzA1rh__hJR12n7-86" value="z20/3" style="edgeLabel;html=1;align=center;verticalAlign=middle;resizable=0;points=[];" vertex="1" connectable="0" parent="fl1EmZzA1rh__hJR12n7-51">
          <mxGeometry x="-0.1321" relative="1" as="geometry">
            <mxPoint as="offset" />
          </mxGeometry>
        </mxCell>
        <mxCell id="fl1EmZzA1rh__hJR12n7-29" value="26" style="ellipse;whiteSpace=wrap;html=1;aspect=fixed;" vertex="1" parent="1">
          <mxGeometry x="780" y="542" width="40" height="40" as="geometry" />
        </mxCell>
        <mxCell id="fl1EmZzA1rh__hJR12n7-30" style="edgeStyle=orthogonalEdgeStyle;rounded=0;orthogonalLoop=1;jettySize=auto;html=1;exitX=0.5;exitY=1;exitDx=0;exitDy=0;" edge="1" parent="1" source="fl1EmZzA1rh__hJR12n7-25" target="fl1EmZzA1rh__hJR12n7-25">
          <mxGeometry relative="1" as="geometry" />
        </mxCell>
        <mxCell id="fl1EmZzA1rh__hJR12n7-31" value="27" style="ellipse;whiteSpace=wrap;html=1;aspect=fixed;" vertex="1" parent="1">
          <mxGeometry x="890" y="542" width="40" height="40" as="geometry" />
        </mxCell>
      </root>
    </mxGraphModel>
  </diagram>
</mxfile>
